<svg width="23" height="23" viewBox="0 0 23 23" fill="none" xmlns="http://www.w3.org/2000/svg">
<g clip-path="url(#clip0_74_18)">
<path d="M22.8127 6.3789C22.7468 6.28526 22.6593 6.20884 22.5577 6.15606C22.456 6.10329 22.3432 6.0757 22.2287 6.07563H19.9884L15.3808 2.14874C14.8198 1.58776 13.9092 1.58704 13.3482 2.14874L8.81902 6.07563H6.97507L5.82039 2.09376C5.36758 0.525803 4.29159 0.356537 3.85028 0.356537H0.771153C0.376559 0.356537 0.0574341 0.676021 0.0574341 1.07026C0.0574341 1.46449 0.376896 1.78395 0.77113 1.78395H3.84954C3.94693 1.78395 4.24413 1.78395 4.44684 2.48437L8.41901 17.0825C8.50526 17.3905 8.78593 17.6033 9.10614 17.6033H18.8085C19.1097 17.6033 19.3785 17.4146 19.4802 17.131L22.9 7.0308C22.9787 6.81195 22.946 6.56829 22.8127 6.3789H22.8127ZM14.3646 3.16541L17.7794 6.07599H10.9487L14.3646 3.16541ZM18.3062 16.1762H9.64783L7.37586 7.50341H21.214L18.3062 16.1762ZM16.8907 19.0498C15.8981 19.0498 15.0938 19.854 15.0938 20.8466C15.0938 21.8392 15.8981 22.6435 16.8907 22.6435C17.8833 22.6435 18.6875 21.8392 18.6875 20.8466C18.6875 19.854 17.8833 19.0498 16.8907 19.0498ZM10.4219 19.0498C9.42933 19.0498 8.62505 19.854 8.62505 20.8466C8.62505 21.8392 9.42933 22.6435 10.4219 22.6435C11.4145 22.6435 12.2188 21.8392 12.2188 20.8466C12.2188 19.854 11.4145 19.0498 10.4219 19.0498Z" fill="black"/>
</g>
<defs>
<clipPath id="clip0_74_18">
<rect width="23" height="23" fill="white"/>
</clipPath>
</defs>
</svg>
